<svg width="361" height="210" viewBox="0 0 361 210" fill="none" xmlns="http://www.w3.org/2000/svg">
<rect width="361" height="210" fill="url(#paint0_linear_15_283)"/>
<path d="M20.9862 33H17.6907L22.712 18.4545H26.6751L31.6893 33H28.3938L24.7504 21.7784H24.6367L20.9862 33ZM20.7802 27.2827H28.5643V29.6832H20.7802V27.2827ZM37.8043 33.2131C36.6869 33.2131 35.7257 32.9763 34.9208 32.5028C34.1206 32.0246 33.5051 31.3617 33.0742 30.5142C32.6481 29.6667 32.435 28.6913 32.435 27.5881C32.435 26.4706 32.6504 25.4905 33.0813 24.6477C33.5169 23.8002 34.1348 23.1397 34.935 22.6662C35.7352 22.188 36.6869 21.9489 37.7901 21.9489C38.7418 21.9489 39.5752 22.1217 40.2901 22.4673C41.0051 22.813 41.5709 23.2983 41.9876 23.9233C42.4042 24.5483 42.6339 25.2822 42.6765 26.125H39.8214C39.7409 25.5805 39.5278 25.1425 39.1822 24.8111C38.8413 24.4749 38.3938 24.3068 37.8398 24.3068C37.3711 24.3068 36.9615 24.4347 36.6112 24.6903C36.2655 24.9413 35.9956 25.3082 35.8015 25.7912C35.6074 26.2741 35.5103 26.8589 35.5103 27.5455C35.5103 28.2415 35.605 28.8333 35.7944 29.321C35.9885 29.8087 36.2608 30.1804 36.6112 30.4361C36.9615 30.6918 37.3711 30.8196 37.8398 30.8196C38.1855 30.8196 38.4956 30.7486 38.7702 30.6065C39.0496 30.4645 39.2792 30.2585 39.4592 29.9886C39.6438 29.714 39.7646 29.3849 39.8214 29.0014H42.6765C42.6291 29.8348 42.4019 30.5687 41.9947 31.2031C41.5922 31.8329 41.0359 32.3253 40.3256 32.6804C39.6154 33.0355 38.775 33.2131 37.8043 33.2131ZM50.4162 22.0909V24.3636H43.8466V22.0909H50.4162ZM45.3381 19.4773H48.3636V29.6477C48.3636 29.9271 48.4063 30.1449 48.4915 30.3011C48.5767 30.4527 48.6951 30.5592 48.8466 30.6207C49.0028 30.6823 49.1828 30.7131 49.3864 30.7131C49.5284 30.7131 49.6705 30.7012 49.8125 30.6776C49.9545 30.6491 50.0634 30.6278 50.1392 30.6136L50.6151 32.8651C50.4635 32.9124 50.2505 32.9669 49.9759 33.0284C49.7012 33.0947 49.3674 33.1349 48.9744 33.1491C48.2453 33.1776 47.6061 33.0805 47.0568 32.858C46.5123 32.6354 46.0885 32.2898 45.7855 31.821C45.4825 31.3523 45.3333 30.7604 45.3381 30.0455V19.4773ZM52.3871 33V22.0909H55.4126V33H52.3871ZM53.907 20.6847C53.4571 20.6847 53.0713 20.5355 52.7493 20.2372C52.4321 19.9342 52.2734 19.572 52.2734 19.1506C52.2734 18.7339 52.4321 18.3764 52.7493 18.0781C53.0713 17.7751 53.4571 17.6236 53.907 17.6236C54.3568 17.6236 54.7403 17.7751 55.0575 18.0781C55.3795 18.3764 55.5405 18.7339 55.5405 19.1506C55.5405 19.572 55.3795 19.9342 55.0575 20.2372C54.7403 20.5355 54.3568 20.6847 53.907 20.6847ZM68.0067 22.0909L64.1928 33H60.7837L56.9698 22.0909H60.1658L62.4315 29.8963H62.5451L64.8036 22.0909H68.0067ZM69.555 33V22.0909H72.5806V33H69.555ZM71.0749 20.6847C70.6251 20.6847 70.2392 20.5355 69.9173 20.2372C69.6 19.9342 69.4414 19.572 69.4414 19.1506C69.4414 18.7339 69.6 18.3764 69.9173 18.0781C70.2392 17.7751 70.6251 17.6236 71.0749 17.6236C71.5247 17.6236 71.9083 17.7751 72.2255 18.0781C72.5475 18.3764 72.7085 18.7339 72.7085 19.1506C72.7085 19.572 72.5475 19.9342 72.2255 20.2372C71.9083 20.5355 71.5247 20.6847 71.0749 20.6847ZM80.8068 22.0909V24.3636H74.2372V22.0909H80.8068ZM75.7287 19.4773H78.7543V29.6477C78.7543 29.9271 78.7969 30.1449 78.8821 30.3011C78.9673 30.4527 79.0857 30.5592 79.2372 30.6207C79.3935 30.6823 79.5734 30.7131 79.777 30.7131C79.919 30.7131 80.0611 30.7012 80.2031 30.6776C80.3452 30.6491 80.4541 30.6278 80.5298 30.6136L81.0057 32.8651C80.8542 32.9124 80.6411 32.9669 80.3665 33.0284C80.0919 33.0947 79.758 33.1349 79.3651 33.1491C78.6359 33.1776 77.9967 33.0805 77.4474 32.858C76.9029 32.6354 76.4792 32.2898 76.1761 31.821C75.8731 31.3523 75.724 30.7604 75.7287 30.0455V19.4773ZM84.6456 37.0909C84.2621 37.0909 83.9022 37.0601 83.5661 36.9986C83.2346 36.9418 82.96 36.8684 82.7422 36.7784L83.424 34.5199C83.7791 34.6288 84.0987 34.688 84.3828 34.6974C84.6716 34.7069 84.9202 34.6406 85.1286 34.4986C85.3416 34.3565 85.5144 34.1151 85.647 33.7741L85.8246 33.3125L81.9112 22.0909H85.093L87.3516 30.1023H87.4652L89.745 22.0909H92.9482L88.7081 34.179C88.5045 34.7661 88.2275 35.2775 87.8771 35.7131C87.5315 36.1534 87.0935 36.492 86.5632 36.7287C86.0329 36.9702 85.3937 37.0909 84.6456 37.0909ZM107.073 22.6378C107.016 22.0649 106.772 21.6198 106.341 21.3026C105.91 20.9853 105.326 20.8267 104.587 20.8267C104.085 20.8267 103.661 20.8977 103.316 21.0398C102.97 21.1771 102.705 21.3688 102.52 21.6151C102.34 21.8613 102.25 22.1406 102.25 22.4531C102.241 22.7135 102.295 22.9408 102.414 23.1349C102.537 23.3291 102.705 23.4972 102.918 23.6392C103.131 23.7765 103.377 23.8973 103.657 24.0014C103.936 24.1009 104.234 24.1861 104.551 24.2571L105.858 24.5696C106.493 24.7116 107.075 24.901 107.605 25.1378C108.136 25.3745 108.595 25.6657 108.983 26.0114C109.372 26.357 109.672 26.7642 109.885 27.233C110.103 27.7017 110.214 28.2391 110.219 28.8452C110.214 29.7353 109.987 30.5071 109.537 31.1605C109.092 31.8092 108.448 32.3134 107.605 32.6733C106.767 33.0284 105.757 33.206 104.573 33.206C103.399 33.206 102.376 33.026 101.505 32.6662C100.638 32.3063 99.9611 31.7737 99.4734 31.0682C98.9904 30.358 98.7371 29.4796 98.7134 28.4332H101.689C101.722 28.9209 101.862 29.3281 102.108 29.6548C102.359 29.9768 102.693 30.2206 103.11 30.3864C103.531 30.5473 104.007 30.6278 104.537 30.6278C105.058 30.6278 105.51 30.5521 105.894 30.4006C106.282 30.2491 106.583 30.0384 106.796 29.7685C107.009 29.4986 107.115 29.1884 107.115 28.8381C107.115 28.5114 107.018 28.2367 106.824 28.0142C106.635 27.7917 106.355 27.6023 105.986 27.446C105.622 27.2898 105.174 27.1477 104.644 27.0199L103.06 26.6222C101.834 26.3239 100.865 25.8575 100.155 25.223C99.445 24.5885 99.0922 23.7339 99.0969 22.6591C99.0922 21.7784 99.3266 21.009 99.8001 20.3509C100.278 19.6927 100.934 19.179 101.767 18.8097C102.601 18.4403 103.548 18.2557 104.608 18.2557C105.688 18.2557 106.63 18.4403 107.435 18.8097C108.245 19.179 108.874 19.6927 109.324 20.3509C109.774 21.009 110.006 21.7713 110.02 22.6378H107.073ZM119.227 28.3551V22.0909H122.252V33H119.347V31.0185H119.234C118.987 31.6577 118.578 32.1714 118.005 32.5597C117.437 32.9479 116.743 33.142 115.924 33.142C115.195 33.142 114.553 32.9763 113.999 32.6449C113.445 32.3134 113.012 31.8423 112.7 31.2315C112.392 30.6207 112.236 29.8892 112.231 29.0369V22.0909H115.256V28.4972C115.261 29.1411 115.434 29.6501 115.775 30.0241C116.116 30.3982 116.573 30.5852 117.146 30.5852C117.51 30.5852 117.851 30.5024 118.168 30.3366C118.486 30.1662 118.741 29.9152 118.935 29.5838C119.134 29.2524 119.231 28.8428 119.227 28.3551ZM124.672 33V22.0909H127.556V24.0156H127.684C127.911 23.3764 128.29 22.8722 128.82 22.5028C129.35 22.1335 129.985 21.9489 130.723 21.9489C131.471 21.9489 132.108 22.1359 132.634 22.5099C133.159 22.8793 133.51 23.3812 133.685 24.0156H133.799C134.021 23.3906 134.424 22.8911 135.006 22.517C135.593 22.1383 136.287 21.9489 137.087 21.9489C138.105 21.9489 138.931 22.2732 139.566 22.9219C140.205 23.5658 140.525 24.4796 140.525 25.6634V33H137.506V26.2599C137.506 25.6539 137.345 25.1993 137.023 24.8963C136.701 24.5933 136.299 24.4418 135.816 24.4418C135.266 24.4418 134.838 24.617 134.53 24.9673C134.222 25.313 134.069 25.7699 134.069 26.3381V33H131.135V26.196C131.135 25.661 130.981 25.2348 130.674 24.9176C130.371 24.6004 129.971 24.4418 129.473 24.4418C129.137 24.4418 128.834 24.527 128.564 24.6974C128.299 24.8632 128.088 25.0975 127.932 25.4006C127.776 25.6989 127.698 26.0492 127.698 26.4517V33H124.672ZM142.914 33V22.0909H145.798V24.0156H145.926C146.153 23.3764 146.532 22.8722 147.062 22.5028C147.592 22.1335 148.227 21.9489 148.966 21.9489C149.714 21.9489 150.35 22.1359 150.876 22.5099C151.402 22.8793 151.752 23.3812 151.927 24.0156H152.041C152.263 23.3906 152.666 22.8911 153.248 22.517C153.835 22.1383 154.529 21.9489 155.329 21.9489C156.347 21.9489 157.173 22.2732 157.808 22.9219C158.447 23.5658 158.767 24.4796 158.767 25.6634V33H155.748V26.2599C155.748 25.6539 155.587 25.1993 155.265 24.8963C154.943 24.5933 154.541 24.4418 154.058 24.4418C153.509 24.4418 153.08 24.617 152.772 24.9673C152.465 25.313 152.311 25.7699 152.311 26.3381V33H149.377V26.196C149.377 25.661 149.224 25.2348 148.916 24.9176C148.613 24.6004 148.213 24.4418 147.716 24.4418C147.379 24.4418 147.076 24.527 146.806 24.6974C146.541 24.8632 146.331 25.0975 146.174 25.4006C146.018 25.6989 145.94 26.0492 145.94 26.4517V33H142.914ZM164.267 33.206C163.571 33.206 162.951 33.0852 162.407 32.8438C161.862 32.5975 161.431 32.2353 161.114 31.7571C160.801 31.2741 160.645 30.6728 160.645 29.9531C160.645 29.3471 160.757 28.8381 160.979 28.4261C161.202 28.0142 161.505 27.6828 161.888 27.4318C162.272 27.1809 162.707 26.9915 163.195 26.8636C163.687 26.7358 164.203 26.6458 164.743 26.5938C165.378 26.5275 165.889 26.4659 166.277 26.4091C166.666 26.3475 166.947 26.2576 167.123 26.1392C167.298 26.0208 167.385 25.8456 167.385 25.6136V25.571C167.385 25.1212 167.243 24.7732 166.959 24.527C166.68 24.2808 166.282 24.1577 165.766 24.1577C165.221 24.1577 164.788 24.2784 164.466 24.5199C164.144 24.7566 163.931 25.0549 163.827 25.4148L161.029 25.1875C161.171 24.5246 161.45 23.9517 161.867 23.4688C162.283 22.9811 162.821 22.607 163.479 22.3466C164.142 22.0814 164.909 21.9489 165.78 21.9489C166.386 21.9489 166.966 22.0199 167.52 22.1619C168.079 22.304 168.574 22.5241 169.005 22.8224C169.44 23.1207 169.783 23.5043 170.034 23.973C170.285 24.437 170.411 24.9934 170.411 25.642V33H167.542V31.4872H167.456C167.281 31.8281 167.047 32.1288 166.753 32.3892C166.46 32.6449 166.107 32.8461 165.695 32.9929C165.283 33.1349 164.807 33.206 164.267 33.206ZM165.134 31.1179C165.579 31.1179 165.972 31.0303 166.313 30.8551C166.654 30.6752 166.921 30.4337 167.115 30.1307C167.31 29.8277 167.407 29.4844 167.407 29.1009V27.9432C167.312 28.0047 167.182 28.0616 167.016 28.1136C166.855 28.161 166.673 28.206 166.469 28.2486C166.266 28.2865 166.062 28.322 165.858 28.3551C165.655 28.3835 165.47 28.4096 165.304 28.4332C164.949 28.4853 164.639 28.5682 164.374 28.6818C164.109 28.7955 163.903 28.9493 163.756 29.1435C163.609 29.3329 163.536 29.5696 163.536 29.8537C163.536 30.2656 163.685 30.5805 163.983 30.7983C164.286 31.0114 164.67 31.1179 165.134 31.1179ZM172.758 33V22.0909H175.691V23.9943H175.805C176.004 23.3172 176.338 22.8059 176.806 22.4602C177.275 22.1098 177.815 21.9347 178.426 21.9347C178.577 21.9347 178.741 21.9441 178.916 21.9631C179.091 21.982 179.245 22.008 179.377 22.0412V24.7259C179.235 24.6832 179.039 24.6454 178.788 24.6122C178.537 24.5791 178.307 24.5625 178.099 24.5625C177.654 24.5625 177.256 24.6596 176.906 24.8537C176.56 25.0431 176.286 25.3082 176.082 25.6491C175.883 25.9901 175.784 26.383 175.784 26.8281V33H172.758ZM183.142 37.0909C182.758 37.0909 182.398 37.0601 182.062 36.9986C181.731 36.9418 181.456 36.8684 181.238 36.7784L181.92 34.5199C182.275 34.6288 182.595 34.688 182.879 34.6974C183.168 34.7069 183.416 34.6406 183.625 34.4986C183.838 34.3565 184.011 34.1151 184.143 33.7741L184.321 33.3125L180.407 22.0909H183.589L185.848 30.1023H185.961L188.241 22.0909H191.444L187.204 34.179C187.001 34.7661 186.724 35.2775 186.373 35.7131C186.028 36.1534 185.59 36.492 185.059 36.7287C184.529 36.9702 183.89 37.0909 183.142 37.0909Z" fill="white"/>
<circle cx="97.5" cy="123.5" r="71.5" stroke="url(#paint1_linear_15_283)" stroke-width="6"/>
<path d="M39 87.5L42 83.5L44.5 80.5L46.5 77.5L50 74L52 72L54 70L56.5 68.5L63 64L67.5 61.5L72 59.5L76 58L81 56.5L85.5 56L89 55.5L94 55H95.5V49H94L90 49.5L85.5 50L80 51L77 52L73.5 53L69.5 54.5L65 56.5L61 58.5L58.5 60L54 63L51.5 65L49 67L45 70.5L43 72.5L41 75L39.5 76.5L38 78.5L36.5 80.5L35 82.5L39 87.5Z" fill="#4B4B4B" stroke="#494949"/>
<path d="M71.2733 105.46C72.4409 105.469 73.5914 105.682 74.725 106.099C75.8585 106.517 76.8812 107.199 77.7931 108.145C78.7136 109.091 79.4466 110.369 79.992 111.98C80.546 113.582 80.8272 115.577 80.8358 117.963C80.8358 120.256 80.6056 122.297 80.1454 124.087C79.6852 125.868 79.0247 127.372 78.1639 128.599C77.3116 129.827 76.2761 130.76 75.0574 131.399C73.8386 132.038 72.4664 132.358 70.9409 132.358C69.3812 132.358 67.9963 132.051 66.786 131.438C65.5758 130.824 64.5914 129.976 63.8329 128.893C63.0744 127.803 62.6014 126.55 62.4139 125.135H66.313C66.5687 126.26 67.0886 127.172 67.8727 127.871C68.6653 128.561 69.688 128.906 70.9409 128.906C72.8585 128.906 74.3542 128.071 75.4281 126.401C76.502 124.722 77.0431 122.378 77.0517 119.369H76.8471C76.4039 120.102 75.85 120.733 75.1852 121.261C74.5289 121.79 73.7917 122.199 72.9735 122.489C72.1554 122.778 71.2818 122.923 70.3528 122.923C68.8443 122.923 67.4721 122.553 66.2363 121.811C65.0005 121.07 64.0162 120.051 63.2832 118.756C62.5502 117.46 62.1838 115.982 62.1838 114.32C62.1838 112.666 62.5588 111.166 63.3088 109.82C64.0673 108.473 65.1241 107.408 66.4792 106.624C67.8429 105.831 69.4409 105.443 71.2733 105.46ZM71.286 108.784C70.2889 108.784 69.3897 109.031 68.5886 109.526C67.796 110.011 67.1696 110.672 66.7093 111.507C66.2491 112.334 66.019 113.254 66.019 114.268C66.019 115.283 66.2406 116.203 66.6838 117.03C67.1355 117.848 67.7491 118.5 68.5247 118.986C69.3088 119.463 70.2037 119.702 71.2093 119.702C71.9593 119.702 72.6582 119.557 73.3059 119.267C73.9537 118.977 74.5204 118.577 75.0062 118.065C75.492 117.545 75.8713 116.957 76.144 116.301C76.4167 115.645 76.5531 114.955 76.5531 114.23C76.5531 113.267 76.323 112.372 75.8627 111.545C75.411 110.719 74.7889 110.054 73.9963 109.551C73.2037 109.04 72.3002 108.784 71.286 108.784ZM94.5691 132.358C92.8134 132.358 91.2452 132.055 89.8645 131.45C88.4924 130.845 87.4057 130.006 86.6046 128.932C85.812 127.849 85.3858 126.597 85.3262 125.173H89.3404C89.3915 125.949 89.6515 126.622 90.1202 127.193C90.5975 127.756 91.2196 128.19 91.9867 128.497C92.7537 128.804 93.606 128.957 94.5435 128.957C95.5748 128.957 96.4867 128.778 97.2793 128.42C98.0804 128.062 98.7069 127.564 99.1586 126.925C99.6103 126.277 99.8361 125.531 99.8361 124.688C99.8361 123.81 99.6103 123.038 99.1586 122.374C98.7154 121.7 98.0634 121.172 97.2026 120.788C96.3503 120.405 95.3191 120.213 94.1088 120.213H91.8972V116.991H94.1088C95.0804 116.991 95.9327 116.817 96.6657 116.467C97.4071 116.118 97.9867 115.632 98.4043 115.01C98.8219 114.379 99.0307 113.642 99.0307 112.798C99.0307 111.989 98.8475 111.286 98.481 110.689C98.123 110.084 97.6117 109.611 96.9469 109.27C96.2907 108.929 95.5151 108.759 94.6202 108.759C93.7679 108.759 92.9711 108.916 92.2296 109.232C91.4966 109.538 90.9 109.982 90.4398 110.561C89.9796 111.132 89.7324 111.818 89.6983 112.619H85.8759C85.9185 111.205 86.3361 109.96 87.1287 108.886C87.9299 107.812 88.9867 106.973 90.2992 106.368C91.6117 105.763 93.0691 105.46 94.6713 105.46C96.3503 105.46 97.7992 105.788 99.0179 106.445C100.245 107.092 101.191 107.957 101.856 109.04C102.529 110.122 102.862 111.307 102.853 112.594C102.862 114.06 102.453 115.304 101.626 116.327C100.808 117.349 99.7168 118.036 98.3532 118.385V118.589C100.092 118.854 101.438 119.544 102.393 120.661C103.356 121.777 103.833 123.162 103.825 124.815C103.833 126.256 103.433 127.547 102.623 128.689C101.822 129.831 100.727 130.73 99.3375 131.386C97.9483 132.034 96.3588 132.358 94.5691 132.358ZM122.323 127.091V125.71C122.323 124.722 122.528 123.818 122.937 123C123.355 122.173 123.96 121.513 124.752 121.018C125.553 120.516 126.521 120.264 127.654 120.264C128.813 120.264 129.785 120.511 130.569 121.006C131.353 121.5 131.945 122.161 132.346 122.987C132.755 123.814 132.96 124.722 132.96 125.71V127.091C132.96 128.08 132.755 128.987 132.346 129.814C131.937 130.632 131.336 131.293 130.544 131.795C129.759 132.29 128.796 132.537 127.654 132.537C126.504 132.537 125.532 132.29 124.74 131.795C123.947 131.293 123.346 130.632 122.937 129.814C122.528 128.987 122.323 128.08 122.323 127.091ZM125.302 125.71V127.091C125.302 127.824 125.477 128.489 125.826 129.085C126.176 129.682 126.785 129.98 127.654 129.98C128.515 129.98 129.116 129.682 129.457 129.085C129.798 128.489 129.968 127.824 129.968 127.091V125.71C129.968 124.977 129.802 124.312 129.47 123.716C129.146 123.119 128.541 122.821 127.654 122.821C126.802 122.821 126.197 123.119 125.839 123.716C125.481 124.312 125.302 124.977 125.302 125.71ZM109.156 112.108V110.727C109.156 109.739 109.36 108.831 109.769 108.004C110.187 107.178 110.792 106.517 111.585 106.023C112.386 105.528 113.353 105.281 114.487 105.281C115.646 105.281 116.617 105.528 117.401 106.023C118.186 106.517 118.778 107.178 119.178 108.004C119.579 108.831 119.779 109.739 119.779 110.727V112.108C119.779 113.097 119.575 114.004 119.166 114.831C118.765 115.649 118.169 116.31 117.376 116.812C116.592 117.307 115.629 117.554 114.487 117.554C113.328 117.554 112.352 117.307 111.559 116.812C110.775 116.31 110.178 115.649 109.769 114.831C109.36 114.004 109.156 113.097 109.156 112.108ZM112.147 110.727V112.108C112.147 112.841 112.318 113.506 112.659 114.102C113.008 114.699 113.617 114.997 114.487 114.997C115.339 114.997 115.936 114.699 116.276 114.102C116.626 113.506 116.801 112.841 116.801 112.108V110.727C116.801 109.994 116.634 109.33 116.302 108.733C115.97 108.136 115.365 107.838 114.487 107.838C113.634 107.838 113.029 108.136 112.671 108.733C112.322 109.33 112.147 109.994 112.147 110.727ZM110.37 132L128.37 105.818H131.426L113.426 132H110.37Z" fill="white"/>
<path d="M72.0194 143.767L71.2665 143.98C71.2192 143.855 71.1493 143.733 71.057 143.614C70.967 143.494 70.8439 143.394 70.6877 143.316C70.5314 143.238 70.3314 143.199 70.0875 143.199C69.7537 143.199 69.4756 143.276 69.253 143.43C69.0328 143.581 68.9228 143.774 68.9228 144.009C68.9228 144.217 68.9985 144.381 69.15 144.502C69.3016 144.623 69.5383 144.723 69.8603 144.804L70.6699 145.003C71.1576 145.121 71.521 145.302 71.7601 145.546C71.9992 145.788 72.1188 146.099 72.1188 146.48C72.1188 146.793 72.0288 147.072 71.8489 147.318C71.6713 147.564 71.4228 147.759 71.1032 147.901C70.7836 148.043 70.4119 148.114 69.9881 148.114C69.4318 148.114 68.9713 147.993 68.6067 147.751C68.2421 147.51 68.0113 147.157 67.9142 146.693L68.7097 146.494C68.7855 146.788 68.9287 147.008 69.1394 147.155C69.3525 147.302 69.6306 147.375 69.9739 147.375C70.3645 147.375 70.6747 147.292 70.9043 147.126C71.1363 146.958 71.2523 146.757 71.2523 146.523C71.2523 146.333 71.186 146.175 71.0534 146.047C70.9209 145.917 70.7173 145.82 70.4426 145.756L69.5336 145.543C69.034 145.424 68.6671 145.241 68.4327 144.992C68.2007 144.741 68.0847 144.428 68.0847 144.051C68.0847 143.743 68.1711 143.471 68.3439 143.234C68.5191 142.998 68.757 142.812 69.0577 142.677C69.3607 142.542 69.704 142.474 70.0875 142.474C70.6273 142.474 71.0511 142.593 71.3588 142.83C71.669 143.066 71.8891 143.379 72.0194 143.767ZM74.9854 148.128C74.6398 148.128 74.3261 148.063 74.0444 147.933C73.7627 147.8 73.5389 147.609 73.3732 147.361C73.2075 147.11 73.1246 146.807 73.1246 146.452C73.1246 146.139 73.1862 145.886 73.3093 145.692C73.4324 145.495 73.5969 145.341 73.8029 145.23C74.0089 145.119 74.2362 145.036 74.4847 144.982C74.7357 144.925 74.9878 144.88 75.2411 144.847C75.5726 144.804 75.8413 144.772 76.0472 144.751C76.2556 144.727 76.4071 144.688 76.5018 144.634C76.5988 144.579 76.6474 144.484 76.6474 144.349V144.321C76.6474 143.971 76.5515 143.698 76.3597 143.504C76.1703 143.31 75.8827 143.213 75.4968 143.213C75.0967 143.213 74.783 143.301 74.5558 143.476C74.3285 143.651 74.1687 143.838 74.0763 144.037L73.2809 143.753C73.4229 143.421 73.6123 143.163 73.8491 142.979C74.0882 142.792 74.3486 142.661 74.6303 142.588C74.9144 142.512 75.1938 142.474 75.4684 142.474C75.6436 142.474 75.8448 142.496 76.0721 142.538C76.3017 142.579 76.5231 142.663 76.7362 142.79C76.9516 142.918 77.1303 143.111 77.2724 143.369C77.4144 143.627 77.4854 143.973 77.4854 144.406V148H76.6474V147.261H76.6048C76.5479 147.38 76.4532 147.506 76.3207 147.641C76.1881 147.776 76.0117 147.891 75.7915 147.986C75.5714 148.08 75.3027 148.128 74.9854 148.128ZM75.1133 147.375C75.4447 147.375 75.7241 147.31 75.9513 147.18C76.181 147.049 76.3538 146.881 76.4698 146.675C76.5882 146.469 76.6474 146.253 76.6474 146.026V145.259C76.6119 145.301 76.5337 145.34 76.413 145.376C76.2946 145.409 76.1573 145.438 76.0011 145.464C75.8472 145.488 75.6969 145.509 75.5501 145.528C75.4057 145.545 75.2885 145.559 75.1985 145.571C74.9807 145.599 74.7771 145.646 74.5877 145.71C74.4007 145.771 74.2492 145.865 74.1332 145.99C74.0195 146.113 73.9627 146.281 73.9627 146.494C73.9627 146.786 74.0704 147.006 74.2859 147.155C74.5037 147.302 74.7795 147.375 75.1133 147.375ZM81.4441 142.545V143.256H78.5037V142.545H81.4441ZM79.3844 148V141.793C79.3844 141.48 79.4578 141.22 79.6046 141.011C79.7514 140.803 79.9419 140.647 80.1763 140.543C80.4107 140.438 80.6581 140.386 80.9185 140.386C81.1245 140.386 81.2926 140.403 81.4228 140.436C81.553 140.469 81.65 140.5 81.714 140.528L81.4725 141.253C81.4299 141.239 81.3707 141.221 81.2949 141.2C81.2215 141.178 81.1245 141.168 81.0037 141.168C80.7267 141.168 80.5267 141.237 80.4036 141.377C80.2828 141.517 80.2225 141.722 80.2225 141.991V148H79.3844ZM84.6809 148.114C84.1554 148.114 83.702 147.998 83.3208 147.766C82.9421 147.531 82.6497 147.205 82.4437 146.786C82.2401 146.364 82.1383 145.874 82.1383 145.315C82.1383 144.757 82.2401 144.264 82.4437 143.838C82.6497 143.41 82.9361 143.076 83.3031 142.837C83.6724 142.595 84.1033 142.474 84.5957 142.474C84.8798 142.474 85.1603 142.522 85.4373 142.616C85.7143 142.711 85.9664 142.865 86.1937 143.078C86.421 143.289 86.6021 143.568 86.737 143.916C86.872 144.264 86.9395 144.693 86.9395 145.202V145.557H82.7349V144.832H86.0872C86.0872 144.525 86.0256 144.25 85.9025 144.009C85.7818 143.767 85.609 143.576 85.3841 143.437C85.1615 143.297 84.8987 143.227 84.5957 143.227C84.2619 143.227 83.9731 143.31 83.7292 143.476C83.4877 143.639 83.3019 143.852 83.1717 144.115C83.0415 144.378 82.9764 144.66 82.9764 144.96V145.443C82.9764 145.855 83.0474 146.204 83.1895 146.491C83.3339 146.775 83.5339 146.991 83.7896 147.141C84.0453 147.287 84.3424 147.361 84.6809 147.361C84.9011 147.361 85.1 147.33 85.2775 147.268C85.4574 147.205 85.6125 147.11 85.7427 146.984C85.8729 146.857 85.9735 146.698 86.0446 146.509L86.8542 146.736C86.769 147.01 86.6258 147.252 86.4245 147.46C86.2233 147.666 85.9747 147.827 85.6788 147.943C85.3829 148.057 85.0502 148.114 84.6809 148.114ZM90.5865 142.545V143.256H87.7598V142.545H90.5865ZM88.5836 141.239H89.4217V146.438C89.4217 146.674 89.456 146.852 89.5247 146.97C89.5957 147.086 89.6857 147.164 89.7946 147.205C89.9058 147.242 90.023 147.261 90.1461 147.261C90.2385 147.261 90.3142 147.257 90.3734 147.247C90.4326 147.235 90.4799 147.226 90.5154 147.219L90.6859 147.972C90.6291 147.993 90.5498 148.014 90.448 148.036C90.3462 148.059 90.2172 148.071 90.0609 148.071C89.8242 148.071 89.5922 148.02 89.3649 147.918C89.14 147.817 88.9529 147.661 88.8038 147.453C88.657 147.245 88.5836 146.982 88.5836 146.665V141.239ZM92.3869 150.045C92.2449 150.045 92.1182 150.034 92.0069 150.01C91.8957 149.989 91.8187 149.967 91.7761 149.946L91.9892 149.207C92.1928 149.259 92.3727 149.278 92.5289 149.264C92.6852 149.25 92.8237 149.18 92.9444 149.055C93.0675 148.932 93.18 148.732 93.2818 148.455L93.438 148.028L91.421 142.545H92.3301L93.8358 146.892H93.8926L95.3983 142.545H96.3074L93.992 148.795C93.8878 149.077 93.7588 149.31 93.6049 149.495C93.4511 149.682 93.2723 149.821 93.0687 149.911C92.8675 150 92.6402 150.045 92.3869 150.045ZM104.09 143.767L103.337 143.98C103.289 143.855 103.22 143.733 103.127 143.614C103.037 143.494 102.914 143.394 102.758 143.316C102.602 143.238 102.402 143.199 102.158 143.199C101.824 143.199 101.546 143.276 101.323 143.43C101.103 143.581 100.993 143.774 100.993 144.009C100.993 144.217 101.069 144.381 101.22 144.502C101.372 144.623 101.609 144.723 101.931 144.804L102.74 145.003C103.228 145.121 103.591 145.302 103.83 145.546C104.07 145.788 104.189 146.099 104.189 146.48C104.189 146.793 104.099 147.072 103.919 147.318C103.742 147.564 103.493 147.759 103.173 147.901C102.854 148.043 102.482 148.114 102.058 148.114C101.502 148.114 101.042 147.993 100.677 147.751C100.312 147.51 100.082 147.157 99.9846 146.693L100.78 146.494C100.856 146.788 100.999 147.008 101.21 147.155C101.423 147.302 101.701 147.375 102.044 147.375C102.435 147.375 102.745 147.292 102.975 147.126C103.207 146.958 103.323 146.757 103.323 146.523C103.323 146.333 103.256 146.175 103.124 146.047C102.991 145.917 102.788 145.82 102.513 145.756L101.604 145.543C101.104 145.424 100.737 145.241 100.503 144.992C100.271 144.741 100.155 144.428 100.155 144.051C100.155 143.743 100.241 143.471 100.414 143.234C100.589 142.998 100.827 142.812 101.128 142.677C101.431 142.542 101.774 142.474 102.158 142.474C102.698 142.474 103.121 142.593 103.429 142.83C103.739 143.066 103.959 143.379 104.09 143.767ZM107.667 148.114C107.155 148.114 106.715 147.993 106.346 147.751C105.976 147.51 105.692 147.177 105.493 146.754C105.294 146.33 105.195 145.846 105.195 145.301C105.195 144.747 105.297 144.258 105.5 143.835C105.706 143.408 105.993 143.076 106.36 142.837C106.729 142.595 107.16 142.474 107.652 142.474C108.036 142.474 108.382 142.545 108.689 142.688C108.997 142.83 109.249 143.028 109.446 143.284C109.642 143.54 109.764 143.838 109.811 144.179H108.973C108.909 143.93 108.767 143.71 108.547 143.518C108.329 143.324 108.036 143.227 107.667 143.227C107.34 143.227 107.053 143.312 106.807 143.483C106.563 143.651 106.373 143.889 106.235 144.197C106.1 144.502 106.033 144.861 106.033 145.273C106.033 145.694 106.099 146.061 106.232 146.374C106.367 146.686 106.556 146.929 106.8 147.102C107.046 147.274 107.335 147.361 107.667 147.361C107.884 147.361 108.082 147.323 108.26 147.247C108.437 147.171 108.587 147.062 108.711 146.92C108.834 146.778 108.921 146.608 108.973 146.409H109.811C109.764 146.731 109.647 147.021 109.46 147.279C109.275 147.535 109.03 147.738 108.725 147.89C108.422 148.039 108.069 148.114 107.667 148.114ZM113.252 148.114C112.76 148.114 112.328 147.996 111.956 147.762C111.587 147.528 111.298 147.2 111.09 146.778C110.884 146.357 110.781 145.865 110.781 145.301C110.781 144.733 110.884 144.237 111.09 143.813C111.298 143.389 111.587 143.06 111.956 142.826C112.328 142.592 112.76 142.474 113.252 142.474C113.745 142.474 114.176 142.592 114.545 142.826C114.917 143.06 115.206 143.389 115.412 143.813C115.62 144.237 115.724 144.733 115.724 145.301C115.724 145.865 115.62 146.357 115.412 146.778C115.206 147.2 114.917 147.528 114.545 147.762C114.176 147.996 113.745 148.114 113.252 148.114ZM113.252 147.361C113.627 147.361 113.934 147.265 114.176 147.073C114.417 146.881 114.596 146.629 114.712 146.317C114.828 146.004 114.886 145.666 114.886 145.301C114.886 144.937 114.828 144.597 114.712 144.282C114.596 143.967 114.417 143.713 114.176 143.518C113.934 143.324 113.627 143.227 113.252 143.227C112.878 143.227 112.571 143.324 112.329 143.518C112.088 143.713 111.909 143.967 111.793 144.282C111.677 144.597 111.619 144.937 111.619 145.301C111.619 145.666 111.677 146.004 111.793 146.317C111.909 146.629 112.088 146.881 112.329 147.073C112.571 147.265 112.878 147.361 113.252 147.361ZM117.003 148V142.545H117.813V143.369H117.87C117.969 143.099 118.149 142.88 118.41 142.712C118.67 142.544 118.964 142.46 119.29 142.46C119.352 142.46 119.429 142.461 119.521 142.464C119.613 142.466 119.683 142.47 119.731 142.474V143.327C119.702 143.32 119.637 143.309 119.535 143.295C119.436 143.278 119.331 143.27 119.219 143.27C118.954 143.27 118.717 143.326 118.509 143.437C118.303 143.546 118.14 143.697 118.019 143.891C117.901 144.083 117.841 144.302 117.841 144.548V148H117.003ZM122.845 148.114C122.319 148.114 121.866 147.998 121.485 147.766C121.106 147.531 120.814 147.205 120.608 146.786C120.404 146.364 120.302 145.874 120.302 145.315C120.302 144.757 120.404 144.264 120.608 143.838C120.814 143.41 121.1 143.076 121.467 142.837C121.836 142.595 122.267 142.474 122.76 142.474C123.044 142.474 123.324 142.522 123.601 142.616C123.878 142.711 124.131 142.865 124.358 143.078C124.585 143.289 124.766 143.568 124.901 143.916C125.036 144.264 125.104 144.693 125.104 145.202V145.557H120.899V144.832H124.251C124.251 144.525 124.19 144.25 124.067 144.009C123.946 143.767 123.773 143.576 123.548 143.437C123.326 143.297 123.063 143.227 122.76 143.227C122.426 143.227 122.137 143.31 121.893 143.476C121.652 143.639 121.466 143.852 121.336 144.115C121.206 144.378 121.14 144.66 121.14 144.96V145.443C121.14 145.855 121.211 146.204 121.354 146.491C121.498 146.775 121.698 146.991 121.954 147.141C122.209 147.287 122.506 147.361 122.845 147.361C123.065 147.361 123.264 147.33 123.442 147.268C123.622 147.205 123.777 147.11 123.907 146.984C124.037 146.857 124.138 146.698 124.209 146.509L125.018 146.736C124.933 147.01 124.79 147.252 124.589 147.46C124.387 147.666 124.139 147.827 123.843 147.943C123.547 148.057 123.214 148.114 122.845 148.114Z" fill="white"/>
<path d="M201.837 75.2827C201.803 74.9389 201.656 74.6719 201.398 74.4815C201.139 74.2912 200.788 74.196 200.345 74.196C200.044 74.196 199.79 74.2386 199.582 74.3239C199.375 74.4062 199.216 74.5213 199.105 74.669C198.997 74.8168 198.943 74.9844 198.943 75.1719C198.938 75.3281 198.97 75.4645 199.041 75.581C199.115 75.6974 199.216 75.7983 199.344 75.8835C199.472 75.9659 199.619 76.0384 199.787 76.1009C199.955 76.1605 200.134 76.2116 200.324 76.2543L201.108 76.4418C201.489 76.527 201.838 76.6406 202.156 76.7827C202.474 76.9247 202.75 77.0994 202.983 77.3068C203.216 77.5142 203.396 77.7585 203.524 78.0398C203.655 78.321 203.722 78.6435 203.724 79.0071C203.722 79.5412 203.585 80.0043 203.315 80.3963C203.048 80.7855 202.662 81.0881 202.156 81.304C201.653 81.517 201.047 81.6236 200.337 81.6236C199.632 81.6236 199.018 81.5156 198.496 81.2997C197.976 81.0838 197.57 80.7642 197.277 80.3409C196.987 79.9148 196.835 79.3878 196.821 78.7599H198.607C198.626 79.0526 198.71 79.2969 198.858 79.4929C199.009 79.6861 199.209 79.8324 199.459 79.9318C199.712 80.0284 199.997 80.0767 200.315 80.0767C200.628 80.0767 200.899 80.0312 201.129 79.9403C201.362 79.8494 201.543 79.723 201.67 79.5611C201.798 79.3991 201.862 79.2131 201.862 79.0028C201.862 78.8068 201.804 78.642 201.688 78.5085C201.574 78.375 201.406 78.2614 201.185 78.1676C200.966 78.0739 200.697 77.9886 200.379 77.9119L199.429 77.6733C198.693 77.4943 198.112 77.2145 197.686 76.8338C197.26 76.4531 197.048 75.9403 197.051 75.2955C197.048 74.767 197.189 74.3054 197.473 73.9105C197.76 73.5156 198.153 73.2074 198.653 72.9858C199.153 72.7642 199.722 72.6534 200.358 72.6534C201.006 72.6534 201.571 72.7642 202.054 72.9858C202.54 73.2074 202.918 73.5156 203.188 73.9105C203.457 74.3054 203.597 74.7628 203.605 75.2827H201.837ZM208.413 74.9545V76.3182H204.471V74.9545H208.413ZM205.366 73.3864H207.181V79.4886C207.181 79.6562 207.207 79.7869 207.258 79.8807C207.309 79.9716 207.38 80.0355 207.471 80.0724C207.565 80.1094 207.673 80.1278 207.795 80.1278C207.88 80.1278 207.966 80.1207 208.051 80.1065C208.136 80.0895 208.201 80.0767 208.247 80.0682L208.532 81.419C208.441 81.4474 208.314 81.4801 208.149 81.517C207.984 81.5568 207.784 81.581 207.548 81.5895C207.11 81.6065 206.727 81.5483 206.397 81.4148C206.071 81.2812 205.816 81.0739 205.635 80.7926C205.453 80.5114 205.363 80.1562 205.366 79.7273V73.3864ZM212.483 81.6278C211.821 81.6278 211.248 81.4872 210.765 81.206C210.285 80.9219 209.914 80.527 209.653 80.0213C209.392 79.5128 209.261 78.9233 209.261 78.2528C209.261 77.5767 209.392 76.9858 209.653 76.4801C209.914 75.9716 210.285 75.5767 210.765 75.2955C211.248 75.0114 211.821 74.8693 212.483 74.8693C213.145 74.8693 213.716 75.0114 214.196 75.2955C214.679 75.5767 215.051 75.9716 215.312 76.4801C215.574 76.9858 215.704 77.5767 215.704 78.2528C215.704 78.9233 215.574 79.5128 215.312 80.0213C215.051 80.527 214.679 80.9219 214.196 81.206C213.716 81.4872 213.145 81.6278 212.483 81.6278ZM212.491 80.2216C212.792 80.2216 213.044 80.1364 213.245 79.9659C213.447 79.7926 213.599 79.5568 213.701 79.2585C213.806 78.9602 213.859 78.6207 213.859 78.2401C213.859 77.8594 213.806 77.5199 213.701 77.2216C213.599 76.9233 213.447 76.6875 213.245 76.5142C213.044 76.3409 212.792 76.2543 212.491 76.2543C212.187 76.2543 211.931 76.3409 211.724 76.5142C211.52 76.6875 211.365 76.9233 211.26 77.2216C211.157 77.5199 211.106 77.8594 211.106 78.2401C211.106 78.6207 211.157 78.9602 211.26 79.2585C211.365 79.5568 211.52 79.7926 211.724 79.9659C211.931 80.1364 212.187 80.2216 212.491 80.2216ZM216.885 83.9545V74.9545H218.674V76.054H218.755C218.835 75.8778 218.95 75.6989 219.1 75.517C219.254 75.3324 219.453 75.179 219.697 75.0568C219.944 74.9318 220.251 74.8693 220.618 74.8693C221.095 74.8693 221.535 74.9943 221.939 75.2443C222.342 75.4915 222.664 75.8651 222.906 76.3651C223.147 76.8622 223.268 77.4858 223.268 78.2358C223.268 78.9659 223.15 79.5824 222.914 80.0852C222.681 80.5852 222.363 80.9645 221.96 81.223C221.559 81.4787 221.11 81.6065 220.613 81.6065C220.261 81.6065 219.961 81.5483 219.714 81.4318C219.47 81.3153 219.27 81.169 219.113 80.9929C218.957 80.8139 218.838 80.6335 218.755 80.4517H218.7V83.9545H216.885ZM218.662 78.2273C218.662 78.6165 218.716 78.956 218.824 79.2457C218.931 79.5355 219.088 79.7614 219.292 79.9233C219.497 80.0824 219.745 80.1619 220.038 80.1619C220.333 80.1619 220.583 80.081 220.788 79.919C220.993 79.7543 221.147 79.527 221.252 79.2372C221.36 78.9446 221.414 78.608 221.414 78.2273C221.414 77.8494 221.362 77.517 221.257 77.2301C221.152 76.9432 220.997 76.7187 220.792 76.5568C220.588 76.3949 220.336 76.3139 220.038 76.3139C219.743 76.3139 219.493 76.392 219.288 76.5483C219.086 76.7045 218.931 76.9261 218.824 77.2131C218.716 77.5 218.662 77.8381 218.662 78.2273ZM227.29 81.5V72.7727H233.17V74.294H229.135V76.3736H232.868V77.8949H229.135V79.9787H233.188V81.5H227.29ZM240.706 74.9545L238.417 81.5H236.372L234.083 74.9545H236.001L237.36 79.6378H237.429L238.784 74.9545H240.706ZM244.407 81.6278C243.733 81.6278 243.154 81.4915 242.668 81.2188C242.185 80.9432 241.813 80.554 241.551 80.0511C241.29 79.5455 241.159 78.9474 241.159 78.2571C241.159 77.5838 241.29 76.9929 241.551 76.4844C241.813 75.9759 242.181 75.5795 242.655 75.2955C243.132 75.0114 243.692 74.8693 244.334 74.8693C244.766 74.8693 245.168 74.9389 245.54 75.0781C245.915 75.2145 246.242 75.4205 246.52 75.696C246.801 75.9716 247.02 76.3182 247.176 76.7358C247.333 77.1506 247.411 77.6364 247.411 78.1932V78.6918H241.884V77.5668H245.702C245.702 77.3054 245.645 77.0739 245.532 76.8722C245.418 76.6705 245.26 76.5128 245.059 76.3991C244.86 76.2827 244.628 76.2244 244.364 76.2244C244.088 76.2244 243.844 76.2884 243.631 76.4162C243.421 76.5412 243.256 76.7102 243.137 76.9233C243.017 77.1335 242.956 77.3679 242.953 77.6264V78.696C242.953 79.0199 243.013 79.2997 243.132 79.5355C243.255 79.7713 243.426 79.9531 243.648 80.081C243.87 80.2088 244.132 80.2727 244.436 80.2727C244.638 80.2727 244.823 80.2443 244.99 80.1875C245.158 80.1307 245.301 80.0455 245.421 79.9318C245.54 79.8182 245.631 79.679 245.694 79.5142L247.373 79.625C247.287 80.0284 247.113 80.3807 246.848 80.6818C246.587 80.9801 246.249 81.2131 245.834 81.3807C245.422 81.5455 244.946 81.6278 244.407 81.6278ZM250.411 77.7159V81.5H248.596V74.9545H250.326V76.1094H250.402C250.547 75.7287 250.79 75.4276 251.131 75.206C251.472 74.9815 251.885 74.8693 252.371 74.8693C252.826 74.8693 253.222 74.9688 253.56 75.1676C253.898 75.3665 254.161 75.6506 254.348 76.0199C254.536 76.3864 254.63 76.8239 254.63 77.3324V81.5H252.814V77.6562C252.817 77.2557 252.715 76.9432 252.507 76.7188C252.3 76.4915 252.015 76.3778 251.651 76.3778C251.407 76.3778 251.191 76.4304 251.003 76.5355C250.819 76.6406 250.674 76.794 250.569 76.9957C250.466 77.1946 250.414 77.4347 250.411 77.7159ZM259.542 74.9545V76.3182H255.6V74.9545H259.542ZM256.495 73.3864H258.31V79.4886C258.31 79.6562 258.336 79.7869 258.387 79.8807C258.438 79.9716 258.509 80.0355 258.6 80.0724C258.694 80.1094 258.802 80.1278 258.924 80.1278C259.009 80.1278 259.094 80.1207 259.18 80.1065C259.265 80.0895 259.33 80.0767 259.376 80.0682L259.661 81.419C259.57 81.4474 259.442 81.4801 259.278 81.517C259.113 81.5568 258.913 81.581 258.677 81.5895C258.239 81.6065 257.856 81.5483 257.526 81.4148C257.2 81.2812 256.945 81.0739 256.763 80.7926C256.582 80.5114 256.492 80.1562 256.495 79.7273V73.3864ZM266.088 76.821L264.426 76.9233C264.398 76.7812 264.337 76.6534 264.243 76.5398C264.15 76.4233 264.026 76.331 263.873 76.2628C263.722 76.1918 263.542 76.1562 263.331 76.1562C263.05 76.1562 262.813 76.2159 262.62 76.3352C262.426 76.4517 262.33 76.608 262.33 76.804C262.33 76.9602 262.392 77.0923 262.517 77.2003C262.642 77.3082 262.857 77.3949 263.161 77.4602L264.346 77.6989C264.982 77.8295 265.456 78.0398 265.769 78.3295C266.081 78.6193 266.238 79 266.238 79.4716C266.238 79.9006 266.111 80.277 265.858 80.6009C265.608 80.9247 265.265 81.1776 264.827 81.3594C264.392 81.5384 263.891 81.6278 263.323 81.6278C262.456 81.6278 261.766 81.4474 261.252 81.0866C260.74 80.723 260.441 80.2287 260.353 79.6037L262.138 79.5099C262.192 79.7741 262.323 79.9759 262.53 80.1151C262.738 80.2514 263.003 80.3196 263.327 80.3196C263.645 80.3196 263.901 80.2585 264.094 80.1364C264.29 80.0114 264.39 79.8509 264.392 79.6548C264.39 79.4901 264.32 79.3551 264.184 79.25C264.047 79.142 263.837 79.0597 263.553 79.0028L262.419 78.777C261.78 78.6491 261.304 78.4276 260.992 78.1122C260.682 77.7969 260.527 77.3949 260.527 76.9062C260.527 76.4858 260.641 76.1236 260.868 75.8196C261.098 75.5156 261.421 75.2812 261.836 75.1165C262.253 74.9517 262.742 74.8693 263.301 74.8693C264.128 74.8693 264.779 75.044 265.253 75.3935C265.73 75.7429 266.009 76.2187 266.088 76.821Z" fill="white"/>
<path d="M332.225 81.5V80.8608L334.626 78.233C334.908 77.9252 335.14 77.6577 335.322 77.4304C335.504 77.2008 335.639 76.9853 335.727 76.7841C335.817 76.5805 335.862 76.3674 335.862 76.1449C335.862 75.8892 335.8 75.6679 335.677 75.4808C335.556 75.2938 335.391 75.1494 335.18 75.0476C334.969 74.9458 334.733 74.8949 334.47 74.8949C334.19 74.8949 333.947 74.9529 333.738 75.0689C333.532 75.1825 333.373 75.3423 333.259 75.5483C333.148 75.7543 333.092 75.9957 333.092 76.2727H332.254C332.254 75.8466 332.352 75.4725 332.549 75.1506C332.745 74.8286 333.013 74.5777 333.351 74.3977C333.692 74.2178 334.074 74.1278 334.498 74.1278C334.924 74.1278 335.302 74.2178 335.631 74.3977C335.96 74.5777 336.218 74.8203 336.405 75.1257C336.592 75.4311 336.686 75.7708 336.686 76.1449C336.686 76.4124 336.637 76.674 336.54 76.9297C336.445 77.183 336.28 77.4659 336.043 77.7784C335.809 78.0885 335.483 78.4673 335.066 78.9148L333.433 80.6619V80.7188H336.814V81.5H332.225Z" fill="white"/>
<rect x="196" y="87.5" width="142" height="10" rx="5" fill="#676767" fill-opacity="0.2"/>
<rect x="196" y="87.5" width="30" height="10" rx="5" fill="url(#paint2_linear_15_283)"/>
<path d="M334.484 121.599C334.067 121.599 333.692 121.517 333.358 121.351C333.024 121.185 332.757 120.958 332.555 120.669C332.354 120.38 332.244 120.051 332.225 119.682H333.077C333.11 120.011 333.26 120.283 333.525 120.499C333.792 120.712 334.112 120.818 334.484 120.818C334.782 120.818 335.047 120.748 335.279 120.609C335.513 120.469 335.697 120.277 335.829 120.033C335.964 119.787 336.032 119.509 336.032 119.199C336.032 118.882 335.962 118.599 335.822 118.35C335.685 118.099 335.496 117.902 335.254 117.757C335.013 117.613 334.737 117.539 334.427 117.537C334.204 117.535 333.976 117.569 333.741 117.64C333.507 117.709 333.314 117.797 333.163 117.906L332.339 117.807L332.779 114.227H336.557V115.009H333.518L333.262 117.153H333.305C333.454 117.035 333.641 116.937 333.866 116.859C334.091 116.781 334.325 116.741 334.569 116.741C335.014 116.741 335.41 116.848 335.758 117.061C336.109 117.272 336.383 117.561 336.582 117.928C336.784 118.295 336.884 118.714 336.884 119.185C336.884 119.649 336.78 120.063 336.572 120.428C336.366 120.79 336.082 121.076 335.719 121.287C335.357 121.495 334.945 121.599 334.484 121.599Z" fill="white"/>
<path d="M201.774 115.283C201.74 114.939 201.594 114.672 201.335 114.482C201.077 114.291 200.726 114.196 200.283 114.196C199.982 114.196 199.727 114.239 199.52 114.324C199.313 114.406 199.153 114.521 199.043 114.669C198.935 114.817 198.881 114.984 198.881 115.172C198.875 115.328 198.908 115.464 198.979 115.581C199.053 115.697 199.153 115.798 199.281 115.884C199.409 115.966 199.557 116.038 199.724 116.101C199.892 116.161 200.071 116.212 200.261 116.254L201.045 116.442C201.426 116.527 201.776 116.641 202.094 116.783C202.412 116.925 202.688 117.099 202.92 117.307C203.153 117.514 203.334 117.759 203.462 118.04C203.592 118.321 203.659 118.643 203.662 119.007C203.659 119.541 203.523 120.004 203.253 120.396C202.986 120.786 202.599 121.088 202.094 121.304C201.591 121.517 200.984 121.624 200.274 121.624C199.57 121.624 198.956 121.516 198.433 121.3C197.913 121.084 197.507 120.764 197.214 120.341C196.925 119.915 196.773 119.388 196.759 118.76H198.544C198.564 119.053 198.648 119.297 198.795 119.493C198.946 119.686 199.146 119.832 199.396 119.932C199.649 120.028 199.935 120.077 200.253 120.077C200.565 120.077 200.837 120.031 201.067 119.94C201.3 119.849 201.48 119.723 201.608 119.561C201.736 119.399 201.8 119.213 201.8 119.003C201.8 118.807 201.741 118.642 201.625 118.509C201.511 118.375 201.344 118.261 201.122 118.168C200.903 118.074 200.635 117.989 200.317 117.912L199.366 117.673C198.631 117.494 198.05 117.214 197.624 116.834C197.197 116.453 196.986 115.94 196.989 115.295C196.986 114.767 197.126 114.305 197.411 113.911C197.697 113.516 198.091 113.207 198.591 112.986C199.091 112.764 199.659 112.653 200.295 112.653C200.943 112.653 201.509 112.764 201.991 112.986C202.477 113.207 202.855 113.516 203.125 113.911C203.395 114.305 203.534 114.763 203.543 115.283H201.774ZM206.684 112.773V121.5H204.869V112.773H206.684ZM211.096 121.628C210.434 121.628 209.862 121.487 209.379 121.206C208.898 120.922 208.528 120.527 208.266 120.021C208.005 119.513 207.874 118.923 207.874 118.253C207.874 117.577 208.005 116.986 208.266 116.48C208.528 115.972 208.898 115.577 209.379 115.295C209.862 115.011 210.434 114.869 211.096 114.869C211.758 114.869 212.329 115.011 212.809 115.295C213.292 115.577 213.664 115.972 213.925 116.48C214.187 116.986 214.317 117.577 214.317 118.253C214.317 118.923 214.187 119.513 213.925 120.021C213.664 120.527 213.292 120.922 212.809 121.206C212.329 121.487 211.758 121.628 211.096 121.628ZM211.104 120.222C211.406 120.222 211.657 120.136 211.859 119.966C212.06 119.793 212.212 119.557 212.315 119.259C212.42 118.96 212.472 118.621 212.472 118.24C212.472 117.859 212.42 117.52 212.315 117.222C212.212 116.923 212.06 116.687 211.859 116.514C211.657 116.341 211.406 116.254 211.104 116.254C210.8 116.254 210.545 116.341 210.337 116.514C210.133 116.687 209.978 116.923 209.873 117.222C209.771 117.52 209.719 117.859 209.719 118.24C209.719 118.621 209.771 118.96 209.873 119.259C209.978 119.557 210.133 119.793 210.337 119.966C210.545 120.136 210.8 120.222 211.104 120.222ZM216.625 121.5L214.844 114.955H216.68L217.695 119.352H217.754L218.811 114.955H220.614L221.688 119.327H221.743L222.74 114.955H224.572L222.795 121.5H220.874L219.749 117.384H219.668L218.543 121.5H216.625ZM228.352 121.5V112.773H234.233V114.294H230.197V116.374H233.93V117.895H230.197V119.979H234.25V121.5H228.352ZM241.768 114.955L239.48 121.5H237.434L235.146 114.955H237.064L238.423 119.638H238.491L239.846 114.955H241.768ZM245.469 121.628C244.796 121.628 244.216 121.491 243.73 121.219C243.248 120.943 242.875 120.554 242.614 120.051C242.353 119.545 242.222 118.947 242.222 118.257C242.222 117.584 242.353 116.993 242.614 116.484C242.875 115.976 243.243 115.58 243.718 115.295C244.195 115.011 244.755 114.869 245.397 114.869C245.828 114.869 246.23 114.939 246.603 115.078C246.978 115.214 247.304 115.42 247.583 115.696C247.864 115.972 248.083 116.318 248.239 116.736C248.395 117.151 248.473 117.636 248.473 118.193V118.692H242.946V117.567H246.765C246.765 117.305 246.708 117.074 246.594 116.872C246.48 116.67 246.323 116.513 246.121 116.399C245.922 116.283 245.691 116.224 245.426 116.224C245.151 116.224 244.907 116.288 244.694 116.416C244.483 116.541 244.319 116.71 244.199 116.923C244.08 117.134 244.019 117.368 244.016 117.626V118.696C244.016 119.02 244.076 119.3 244.195 119.536C244.317 119.771 244.489 119.953 244.711 120.081C244.932 120.209 245.195 120.273 245.499 120.273C245.701 120.273 245.885 120.244 246.053 120.188C246.221 120.131 246.364 120.045 246.483 119.932C246.603 119.818 246.694 119.679 246.756 119.514L248.435 119.625C248.35 120.028 248.175 120.381 247.911 120.682C247.65 120.98 247.311 121.213 246.897 121.381C246.485 121.545 246.009 121.628 245.469 121.628ZM251.473 117.716V121.5H249.658V114.955H251.388V116.109H251.465C251.61 115.729 251.853 115.428 252.194 115.206C252.534 114.982 252.948 114.869 253.434 114.869C253.888 114.869 254.284 114.969 254.623 115.168C254.961 115.366 255.223 115.651 255.411 116.02C255.598 116.386 255.692 116.824 255.692 117.332V121.5H253.877V117.656C253.88 117.256 253.777 116.943 253.57 116.719C253.363 116.491 253.077 116.378 252.713 116.378C252.469 116.378 252.253 116.43 252.066 116.536C251.881 116.641 251.736 116.794 251.631 116.996C251.529 117.195 251.476 117.435 251.473 117.716ZM260.604 114.955V116.318H256.663V114.955H260.604ZM257.558 113.386H259.373V119.489C259.373 119.656 259.398 119.787 259.45 119.881C259.501 119.972 259.572 120.036 259.663 120.072C259.756 120.109 259.864 120.128 259.987 120.128C260.072 120.128 260.157 120.121 260.242 120.107C260.327 120.089 260.393 120.077 260.438 120.068L260.724 121.419C260.633 121.447 260.505 121.48 260.34 121.517C260.175 121.557 259.975 121.581 259.739 121.589C259.302 121.607 258.918 121.548 258.589 121.415C258.262 121.281 258.008 121.074 257.826 120.793C257.644 120.511 257.555 120.156 257.558 119.727V113.386ZM267.151 116.821L265.489 116.923C265.461 116.781 265.4 116.653 265.306 116.54C265.212 116.423 265.088 116.331 264.935 116.263C264.784 116.192 264.604 116.156 264.394 116.156C264.113 116.156 263.875 116.216 263.682 116.335C263.489 116.452 263.392 116.608 263.392 116.804C263.392 116.96 263.455 117.092 263.58 117.2C263.705 117.308 263.919 117.395 264.223 117.46L265.408 117.699C266.044 117.83 266.519 118.04 266.831 118.33C267.144 118.619 267.3 119 267.3 119.472C267.3 119.901 267.174 120.277 266.921 120.601C266.671 120.925 266.327 121.178 265.89 121.359C265.455 121.538 264.953 121.628 264.385 121.628C263.519 121.628 262.828 121.447 262.314 121.087C261.803 120.723 261.503 120.229 261.415 119.604L263.201 119.51C263.255 119.774 263.385 119.976 263.593 120.115C263.8 120.251 264.066 120.32 264.39 120.32C264.708 120.32 264.963 120.259 265.157 120.136C265.353 120.011 265.452 119.851 265.455 119.655C265.452 119.49 265.382 119.355 265.246 119.25C265.11 119.142 264.9 119.06 264.615 119.003L263.482 118.777C262.843 118.649 262.367 118.428 262.054 118.112C261.745 117.797 261.59 117.395 261.59 116.906C261.59 116.486 261.703 116.124 261.931 115.82C262.161 115.516 262.483 115.281 262.898 115.116C263.316 114.952 263.804 114.869 264.364 114.869C265.191 114.869 265.841 115.044 266.316 115.393C266.793 115.743 267.071 116.219 267.151 116.821Z" fill="white"/>
<rect x="196" y="127.5" width="142" height="10" rx="5" fill="#676767" fill-opacity="0.2"/>
<rect x="196" y="127.5" width="85" height="10" rx="5" fill="url(#paint3_linear_15_283)"/>
<path d="M319.61 160.009V159.284L322.806 154.227H323.331V155.349H322.976L320.561 159.17V159.227H324.865V160.009H319.61ZM323.033 161.5V159.788V159.451V154.227H323.871V161.5H323.033ZM328.526 161.599C328.038 161.599 327.607 161.513 327.233 161.34C326.861 161.165 326.571 160.925 326.363 160.619C326.155 160.312 326.052 159.961 326.054 159.568C326.052 159.26 326.112 158.976 326.235 158.716C326.358 158.453 326.526 158.234 326.74 158.059C326.955 157.881 327.195 157.769 327.46 157.722V157.679C327.112 157.589 326.835 157.394 326.629 157.093C326.423 156.79 326.322 156.446 326.324 156.06C326.322 155.69 326.415 155.36 326.605 155.069C326.794 154.778 327.054 154.548 327.386 154.38C327.72 154.212 328.1 154.128 328.526 154.128C328.947 154.128 329.324 154.212 329.655 154.38C329.986 154.548 330.247 154.778 330.436 155.069C330.628 155.36 330.725 155.69 330.727 156.06C330.725 156.446 330.62 156.79 330.411 157.093C330.205 157.394 329.932 157.589 329.591 157.679V157.722C329.854 157.769 330.091 157.881 330.301 158.059C330.512 158.234 330.68 158.453 330.806 158.716C330.931 158.976 330.995 159.26 330.997 159.568C330.995 159.961 330.888 160.312 330.678 160.619C330.469 160.925 330.179 161.165 329.808 161.34C329.438 161.513 329.011 161.599 328.526 161.599ZM328.526 160.818C328.855 160.818 329.139 160.765 329.378 160.658C329.617 160.552 329.802 160.402 329.932 160.207C330.062 160.013 330.128 159.786 330.131 159.526C330.128 159.251 330.057 159.008 329.918 158.798C329.778 158.587 329.588 158.421 329.346 158.3C329.107 158.18 328.834 158.119 328.526 158.119C328.216 158.119 327.939 158.18 327.695 158.3C327.453 158.421 327.263 158.587 327.123 158.798C326.986 159.008 326.918 159.251 326.921 159.526C326.918 159.786 326.981 160.013 327.109 160.207C327.239 160.402 327.425 160.552 327.666 160.658C327.908 160.765 328.194 160.818 328.526 160.818ZM328.526 157.366C328.786 157.366 329.017 157.314 329.218 157.21C329.422 157.106 329.582 156.96 329.698 156.773C329.814 156.586 329.873 156.367 329.875 156.116C329.873 155.87 329.815 155.656 329.701 155.474C329.588 155.289 329.43 155.147 329.229 155.048C329.028 154.946 328.793 154.895 328.526 154.895C328.253 154.895 328.016 154.946 327.812 155.048C327.608 155.147 327.451 155.289 327.34 155.474C327.228 155.656 327.174 155.87 327.176 156.116C327.174 156.367 327.23 156.586 327.343 156.773C327.459 156.96 327.619 157.106 327.823 157.21C328.026 157.314 328.261 157.366 328.526 157.366ZM334.816 161.599C334.347 161.599 333.929 161.519 333.562 161.358C333.198 161.197 332.908 160.973 332.692 160.687C332.479 160.398 332.363 160.063 332.344 159.682H333.239C333.258 159.916 333.338 160.119 333.48 160.289C333.623 160.457 333.808 160.587 334.038 160.68C334.268 160.772 334.522 160.818 334.801 160.818C335.114 160.818 335.391 160.764 335.632 160.655C335.874 160.546 336.063 160.394 336.201 160.2C336.338 160.006 336.407 159.781 336.407 159.526C336.407 159.258 336.34 159.022 336.208 158.819C336.075 158.613 335.881 158.452 335.625 158.336C335.37 158.22 335.057 158.162 334.688 158.162H334.105V157.381H334.688C334.977 157.381 335.23 157.329 335.448 157.224C335.668 157.12 335.84 156.973 335.963 156.784C336.088 156.595 336.151 156.372 336.151 156.116C336.151 155.87 336.096 155.656 335.988 155.474C335.879 155.291 335.725 155.149 335.526 155.048C335.329 154.946 335.097 154.895 334.83 154.895C334.579 154.895 334.342 154.941 334.12 155.033C333.9 155.123 333.72 155.255 333.58 155.428C333.44 155.598 333.364 155.804 333.353 156.045H332.5C332.515 155.664 332.629 155.33 332.845 155.044C333.06 154.755 333.342 154.53 333.69 154.369C334.04 154.208 334.425 154.128 334.844 154.128C335.294 154.128 335.68 154.219 336.002 154.401C336.324 154.581 336.571 154.819 336.744 155.115C336.917 155.411 337.003 155.731 337.003 156.074C337.003 156.483 336.895 156.833 336.68 157.121C336.467 157.41 336.177 157.61 335.81 157.722V157.778C336.269 157.854 336.628 158.049 336.886 158.364C337.144 158.677 337.273 159.064 337.273 159.526C337.273 159.921 337.165 160.276 336.95 160.591C336.737 160.903 336.446 161.15 336.076 161.33C335.707 161.509 335.287 161.599 334.816 161.599Z" fill="white"/>
<path d="M196.79 152.773H199.065L201.469 158.636H201.571L203.974 152.773H206.25V161.5H204.46V155.82H204.388L202.129 161.457H200.911L198.652 155.798H198.58V161.5H196.79V152.773ZM207.736 161.5V154.955H209.551V161.5H207.736ZM208.648 154.111C208.378 154.111 208.147 154.021 207.953 153.842C207.763 153.661 207.668 153.443 207.668 153.19C207.668 152.94 207.763 152.726 207.953 152.547C208.147 152.365 208.378 152.274 208.648 152.274C208.918 152.274 209.148 152.365 209.338 152.547C209.532 152.726 209.628 152.94 209.628 153.19C209.628 153.443 209.532 153.661 209.338 153.842C209.148 154.021 208.918 154.111 208.648 154.111ZM212.821 157.716V161.5H211.006V154.955H212.736V156.109H212.812C212.957 155.729 213.2 155.428 213.541 155.206C213.882 154.982 214.295 154.869 214.781 154.869C215.236 154.869 215.632 154.969 215.97 155.168C216.308 155.366 216.571 155.651 216.759 156.02C216.946 156.386 217.04 156.824 217.04 157.332V161.5H215.224V157.656C215.227 157.256 215.125 156.943 214.918 156.719C214.71 156.491 214.425 156.378 214.061 156.378C213.817 156.378 213.601 156.43 213.413 156.536C213.229 156.641 213.084 156.794 212.979 156.996C212.876 157.195 212.824 157.435 212.821 157.716ZM222.668 158.713V154.955H224.483V161.5H222.74V160.311H222.672C222.525 160.695 222.279 161.003 221.935 161.236C221.594 161.469 221.178 161.585 220.686 161.585C220.249 161.585 219.864 161.486 219.532 161.287C219.199 161.088 218.939 160.805 218.752 160.439C218.567 160.072 218.473 159.634 218.471 159.122V154.955H220.286V158.798C220.289 159.185 220.392 159.49 220.597 159.714C220.801 159.939 221.076 160.051 221.419 160.051C221.638 160.051 221.843 160.001 222.033 159.902C222.223 159.8 222.377 159.649 222.493 159.45C222.613 159.251 222.671 159.006 222.668 158.713ZM229.417 154.955V156.318H225.475V154.955H229.417ZM226.37 153.386H228.185V159.489C228.185 159.656 228.211 159.787 228.262 159.881C228.313 159.972 228.384 160.036 228.475 160.072C228.569 160.109 228.677 160.128 228.799 160.128C228.884 160.128 228.969 160.121 229.055 160.107C229.14 160.089 229.205 160.077 229.251 160.068L229.536 161.419C229.445 161.447 229.317 161.48 229.153 161.517C228.988 161.557 228.788 161.581 228.552 161.589C228.114 161.607 227.731 161.548 227.401 161.415C227.075 161.281 226.82 161.074 226.638 160.793C226.457 160.511 226.367 160.156 226.37 159.727V153.386ZM233.512 161.628C232.839 161.628 232.259 161.491 231.773 161.219C231.29 160.943 230.918 160.554 230.657 160.051C230.396 159.545 230.265 158.947 230.265 158.257C230.265 157.584 230.396 156.993 230.657 156.484C230.918 155.976 231.286 155.58 231.761 155.295C232.238 155.011 232.798 154.869 233.44 154.869C233.871 154.869 234.273 154.939 234.646 155.078C235.021 155.214 235.347 155.42 235.626 155.696C235.907 155.972 236.126 156.318 236.282 156.736C236.438 157.151 236.516 157.636 236.516 158.193V158.692H230.989V157.567H234.808C234.808 157.305 234.751 157.074 234.637 156.872C234.523 156.67 234.366 156.513 234.164 156.399C233.965 156.283 233.734 156.224 233.469 156.224C233.194 156.224 232.95 156.288 232.737 156.416C232.526 156.541 232.362 156.71 232.242 156.923C232.123 157.134 232.062 157.368 232.059 157.626V158.696C232.059 159.02 232.119 159.3 232.238 159.536C232.36 159.771 232.532 159.953 232.754 160.081C232.975 160.209 233.238 160.273 233.542 160.273C233.744 160.273 233.928 160.244 234.096 160.188C234.263 160.131 234.407 160.045 234.526 159.932C234.646 159.818 234.737 159.679 234.799 159.514L236.478 159.625C236.393 160.028 236.218 160.381 235.954 160.682C235.692 160.98 235.354 161.213 234.94 161.381C234.528 161.545 234.052 161.628 233.512 161.628ZM243.147 156.821L241.485 156.923C241.457 156.781 241.396 156.653 241.302 156.54C241.208 156.423 241.085 156.331 240.931 156.263C240.781 156.192 240.6 156.156 240.39 156.156C240.109 156.156 239.871 156.216 239.678 156.335C239.485 156.452 239.388 156.608 239.388 156.804C239.388 156.96 239.451 157.092 239.576 157.2C239.701 157.308 239.915 157.395 240.219 157.46L241.404 157.699C242.04 157.83 242.515 158.04 242.827 158.33C243.14 158.619 243.296 159 243.296 159.472C243.296 159.901 243.17 160.277 242.917 160.601C242.667 160.925 242.323 161.178 241.886 161.359C241.451 161.538 240.95 161.628 240.381 161.628C239.515 161.628 238.825 161.447 238.31 161.087C237.799 160.723 237.499 160.229 237.411 159.604L239.197 159.51C239.251 159.774 239.381 159.976 239.589 160.115C239.796 160.251 240.062 160.32 240.386 160.32C240.704 160.32 240.96 160.259 241.153 160.136C241.349 160.011 241.448 159.851 241.451 159.655C241.448 159.49 241.379 159.355 241.242 159.25C241.106 159.142 240.896 159.06 240.612 159.003L239.478 158.777C238.839 158.649 238.363 158.428 238.05 158.112C237.741 157.797 237.586 157.395 237.586 156.906C237.586 156.486 237.7 156.124 237.927 155.82C238.157 155.516 238.479 155.281 238.894 155.116C239.312 154.952 239.8 154.869 240.36 154.869C241.187 154.869 241.837 155.044 242.312 155.393C242.789 155.743 243.067 156.219 243.147 156.821ZM250.344 161.5H247.251V152.773H250.37C251.248 152.773 252.004 152.947 252.637 153.297C253.271 153.643 253.758 154.142 254.099 154.793C254.442 155.443 254.614 156.222 254.614 157.128C254.614 158.037 254.442 158.818 254.099 159.472C253.758 160.125 253.268 160.626 252.629 160.976C251.992 161.325 251.231 161.5 250.344 161.5ZM249.096 159.919H250.268C250.813 159.919 251.272 159.822 251.644 159.629C252.019 159.433 252.3 159.131 252.488 158.722C252.678 158.31 252.773 157.778 252.773 157.128C252.773 156.483 252.678 155.956 252.488 155.547C252.3 155.138 252.021 154.837 251.648 154.643C251.276 154.45 250.817 154.354 250.272 154.354H249.096V159.919ZM255.947 161.5V154.955H257.707V156.097H257.775C257.895 155.69 258.095 155.384 258.376 155.176C258.657 154.966 258.981 154.861 259.348 154.861C259.439 154.861 259.537 154.866 259.642 154.878C259.747 154.889 259.839 154.905 259.919 154.925V156.536C259.833 156.51 259.716 156.487 259.565 156.467C259.414 156.447 259.277 156.438 259.152 156.438C258.885 156.438 258.646 156.496 258.436 156.612C258.228 156.726 258.064 156.885 257.941 157.089C257.822 157.294 257.762 157.53 257.762 157.797V161.5H255.947ZM263.51 161.628C262.848 161.628 262.276 161.487 261.793 161.206C261.313 160.922 260.942 160.527 260.68 160.021C260.419 159.513 260.288 158.923 260.288 158.253C260.288 157.577 260.419 156.986 260.68 156.48C260.942 155.972 261.313 155.577 261.793 155.295C262.276 155.011 262.848 154.869 263.51 154.869C264.172 154.869 264.743 155.011 265.223 155.295C265.706 155.577 266.078 155.972 266.339 156.48C266.601 156.986 266.732 157.577 266.732 158.253C266.732 158.923 266.601 159.513 266.339 160.021C266.078 160.527 265.706 160.922 265.223 161.206C264.743 161.487 264.172 161.628 263.51 161.628ZM263.518 160.222C263.82 160.222 264.071 160.136 264.273 159.966C264.474 159.793 264.626 159.557 264.729 159.259C264.834 158.96 264.886 158.621 264.886 158.24C264.886 157.859 264.834 157.52 264.729 157.222C264.626 156.923 264.474 156.687 264.273 156.514C264.071 156.341 263.82 156.254 263.518 156.254C263.214 156.254 262.959 156.341 262.751 156.514C262.547 156.687 262.392 156.923 262.287 157.222C262.185 157.52 262.134 157.859 262.134 158.24C262.134 158.621 262.185 158.96 262.287 159.259C262.392 159.557 262.547 159.793 262.751 159.966C262.959 160.136 263.214 160.222 263.518 160.222ZM273.803 154.955L271.515 161.5H269.469L267.181 154.955H269.099L270.458 159.638H270.526L271.881 154.955H273.803ZM277.504 161.628C276.831 161.628 276.251 161.491 275.766 161.219C275.283 160.943 274.911 160.554 274.649 160.051C274.388 159.545 274.257 158.947 274.257 158.257C274.257 157.584 274.388 156.993 274.649 156.484C274.911 155.976 275.278 155.58 275.753 155.295C276.23 155.011 276.79 154.869 277.432 154.869C277.864 154.869 278.266 154.939 278.638 155.078C279.013 155.214 279.339 155.42 279.618 155.696C279.899 155.972 280.118 156.318 280.274 156.736C280.43 157.151 280.509 157.636 280.509 158.193V158.692H274.982V157.567H278.8C278.8 157.305 278.743 157.074 278.629 156.872C278.516 156.67 278.358 156.513 278.156 156.399C277.957 156.283 277.726 156.224 277.462 156.224C277.186 156.224 276.942 156.288 276.729 156.416C276.518 156.541 276.354 156.71 276.234 156.923C276.115 157.134 276.054 157.368 276.051 157.626V158.696C276.051 159.02 276.111 159.3 276.23 159.536C276.352 159.771 276.524 159.953 276.746 160.081C276.967 160.209 277.23 160.273 277.534 160.273C277.736 160.273 277.92 160.244 278.088 160.188C278.256 160.131 278.399 160.045 278.518 159.932C278.638 159.818 278.729 159.679 278.791 159.514L280.47 159.625C280.385 160.028 280.21 160.381 279.946 160.682C279.685 160.98 279.347 161.213 278.932 161.381C278.52 161.545 278.044 161.628 277.504 161.628Z" fill="white"/>
<rect x="196" y="167.5" width="142" height="10" rx="5" fill="#676767" fill-opacity="0.2"/>
<rect x="196" y="167.5" width="125" height="10" rx="5" fill="url(#paint4_linear_15_283)"/>
<defs>
<linearGradient id="paint0_linear_15_283" x1="0" y1="105" x2="361" y2="105" gradientUnits="userSpaceOnUse">
<stop stop-color="#505050"/>
<stop offset="1" stop-color="#313030" stop-opacity="0.9"/>
</linearGradient>
<linearGradient id="paint1_linear_15_283" x1="23" y1="121" x2="154.5" y2="76.5" gradientUnits="userSpaceOnUse">
<stop stop-color="#22C1C3"/>
<stop offset="0.983866" stop-color="#A5DDC4"/>
</linearGradient>
<linearGradient id="paint2_linear_15_283" x1="196" y1="92.5" x2="226" y2="92.5" gradientUnits="userSpaceOnUse">
<stop stop-color="#BCBCBC"/>
<stop offset="1" stop-color="#7970FF"/>
</linearGradient>
<linearGradient id="paint3_linear_15_283" x1="196" y1="132.5" x2="281" y2="132.5" gradientUnits="userSpaceOnUse">
<stop stop-color="#BCBCBC"/>
<stop offset="1" stop-color="#7970FF"/>
</linearGradient>
<linearGradient id="paint4_linear_15_283" x1="196" y1="172.5" x2="321" y2="172.5" gradientUnits="userSpaceOnUse">
<stop stop-color="#BCBCBC"/>
<stop offset="1" stop-color="#7970FF"/>
</linearGradient>
</defs>
</svg>
